<?xml version="1.0" encoding="UTF-8" standalone="no"?>
<!DOCTYPE svg PUBLIC "-//W3C//DTD SVG 1.1//EN" "http://www.w3.org/Graphics/SVG/1.1/DTD/svg11.dtd">
<svg width="100%" height="100%" viewBox="0 0 269 291" version="1.1" xmlns="http://www.w3.org/2000/svg" xmlns:xlink="http://www.w3.org/1999/xlink" xml:space="preserve" xmlns:serif="http://www.serif.com/" style="fill-rule:evenodd;clip-rule:evenodd;stroke-linejoin:round;stroke-miterlimit:2;">
    <g transform="matrix(1,0,0,1,-8544.73,-10438.3)">
        <g transform="matrix(8.33333,0,0,8.33333,0,9843.75)">
            <g transform="matrix(1,0,0,1,1043.14,75.9665)">
                <clipPath id="_clip1">
                    <path d="M-19.148,9.783C-19.148,19.451 -11.31,27.289 -1.642,27.289C8.026,27.289 15.864,19.451 15.864,9.783C15.864,0.115 8.026,-7.723 -1.642,-7.723C-11.31,-7.723 -19.148,0.115 -19.148,9.783Z" clip-rule="nonzero"/>
                </clipPath>
                <g clip-path="url(#_clip1)">
                    <path d="M0,25.472L-1.067,19.274L-0.472,18.576C-0.123,18.576 -0.123,18.576 -0.472,18.35L-1.293,17.754C-1.642,17.406 -1.765,17.406 -1.991,17.754L-2.936,18.576C-3.161,18.576 -3.161,18.576 -2.936,18.576L-2.34,19.047L-3.284,25.349C-4.557,22.659 -5.624,18.576 -6.793,17.057C-5.377,16.236 -5.029,16.236 -5.029,16.236C-5.029,16.236 -4.557,14.492 -4.454,13.322C-3.736,14.02 -2.689,14.717 -1.642,14.717C-0.472,14.717 0.698,14.02 1.621,13.198C1.621,13.896 1.744,16.01 1.744,16.236C2.216,16.236 2.442,16.236 4.084,17.057C2.914,18.576 1.396,22.907 0,25.472M12.273,20.567C11.104,19.274 4.556,16.236 4.433,16.236C3.387,16.01 2.792,15.887 2.442,15.887L2.216,12.849C2.216,12.849 3.612,11.802 3.961,8.888C4.782,9.238 4.782,7.944 4.782,7.472C5.028,6.651 5.48,4.435 4.556,4.558L4.782,2.69C5.726,-1.046 2.914,-2.81 2.914,-2.81C2.442,-3.283 1.744,-3.981 0.923,-4.207C-1.991,-5.254 -5.029,-4.207 -6.793,-1.99C-8.313,0.001 -8.066,2.094 -7.491,4.085L-7.491,4.558C-8.313,4.558 -8.066,6.651 -8.066,7.472C-8.066,7.944 -7.491,9.238 -6.793,8.888C-6.322,11.802 -5.029,12.849 -5.029,12.849L-5.377,15.887C-5.624,16.01 -6.322,16.236 -7.02,16.236C-7.02,16.236 -13.916,19.047 -15.312,20.567C-17.774,23.255 -17.774,27.339 -17.774,27.339C-17.774,27.462 -17.528,27.462 -17.528,27.812C-17.528,28.037 -12.869,29.33 -7.02,29.679C-5.029,30.029 -1.293,30.726 2.688,29.906C9.338,29.679 14.367,28.037 14.49,27.812L14.49,27.339C14.49,27.339 14.49,23.255 12.273,20.567" style="fill:rgb(229,229,229);fill-rule:nonzero;"/>
                </g>
            </g>
        </g>
    </g>
</svg>
